/* XPM */
static char * icon_xpm[] = {
"16 16 3 1",
" 	c None",
".	c #0000FF",
"+	c #ECEAE7",
"     ......     ",
"   ..........   ",
"  ....+++++...  ",
" ....++..+++... ",
" ....++...++... ",
".....+++........",
"......++++......",
".......++++.....",
".........+++....",
"...+.++...++....",
"...+.+++..++....",
" ..+..+++++.... ",
" ..+........... ",
"  .++++++++++.  ",
"   ..........   ",
"     ......     "};
